<svg width="142" height="70" viewBox="0 0 142 70" fill="none" xmlns="http://www.w3.org/2000/svg">
<path d="M15.1868 37.3409V35.2273C17.0845 35.2273 18.4084 34.8295 19.1584 34.0341C19.9197 33.2386 20.3004 31.9091 20.3004 30.0455V24.5909C20.3004 23.0227 20.4482 21.6648 20.7436 20.517C21.0504 19.3693 21.5447 18.4205 22.2266 17.6705C22.9084 16.9205 23.8175 16.3636 24.9538 16C26.0902 15.6364 27.4936 15.4545 29.1641 15.4545V18.7955C27.8459 18.7955 26.8061 19 26.0447 19.4091C25.2947 19.8182 24.7607 20.4545 24.4425 21.3182C24.1357 22.1705 23.9822 23.2614 23.9822 24.5909V31.4091C23.9822 32.2955 23.8629 33.1023 23.6243 33.8295C23.397 34.5568 22.9709 35.1818 22.3459 35.7045C21.7209 36.2273 20.8288 36.6307 19.6697 36.9148C18.522 37.1989 17.0277 37.3409 15.1868 37.3409ZM29.1641 59.0909C27.4936 59.0909 26.0902 58.9091 24.9538 58.5455C23.8175 58.1818 22.9084 57.625 22.2266 56.875C21.5447 56.125 21.0504 55.1761 20.7436 54.0284C20.4482 52.8807 20.3004 51.5227 20.3004 49.9545V44.5C20.3004 42.6364 19.9197 41.3068 19.1584 40.5114C18.4084 39.7159 17.0845 39.3182 15.1868 39.3182V37.2045C17.0277 37.2045 18.522 37.3466 19.6697 37.6307C20.8288 37.9148 21.7209 38.3182 22.3459 38.8409C22.9709 39.3636 23.397 39.9886 23.6243 40.7159C23.8629 41.4432 23.9822 42.25 23.9822 43.1364V49.9545C23.9822 51.2841 24.1357 52.375 24.4425 53.2273C24.7607 54.0795 25.2947 54.7102 26.0447 55.1193C26.8061 55.5398 27.8459 55.75 29.1641 55.75V59.0909ZM15.1868 39.3182V35.2273H19.2095V39.3182H15.1868ZM126.809 37.2045V39.3182C124.911 39.3182 123.582 39.7159 122.82 40.5114C122.07 41.3068 121.695 42.6364 121.695 44.5V49.9545C121.695 51.5227 121.542 52.8807 121.235 54.0284C120.94 55.1761 120.451 56.125 119.769 56.875C119.087 57.625 118.178 58.1818 117.042 58.5455C115.906 58.9091 114.502 59.0909 112.832 59.0909V55.75C114.15 55.75 115.184 55.5398 115.934 55.1193C116.695 54.7102 117.229 54.0795 117.536 53.2273C117.854 52.375 118.013 51.2841 118.013 49.9545V43.1364C118.013 42.25 118.127 41.4432 118.354 40.7159C118.593 39.9886 119.025 39.3636 119.65 38.8409C120.275 38.3182 121.161 37.9148 122.309 37.6307C123.468 37.3466 124.968 37.2045 126.809 37.2045ZM112.832 15.4545C114.502 15.4545 115.906 15.6364 117.042 16C118.178 16.3636 119.087 16.9205 119.769 17.6705C120.451 18.4205 120.94 19.3693 121.235 20.517C121.542 21.6648 121.695 23.0227 121.695 24.5909V30.0455C121.695 31.9091 122.07 33.2386 122.82 34.0341C123.582 34.8295 124.911 35.2273 126.809 35.2273V37.3409C124.968 37.3409 123.468 37.1989 122.309 36.9148C121.161 36.6307 120.275 36.2273 119.65 35.7045C119.025 35.1818 118.593 34.5568 118.354 33.8295C118.127 33.1023 118.013 32.2955 118.013 31.4091V24.5909C118.013 23.2614 117.854 22.1705 117.536 21.3182C117.229 20.4545 116.695 19.8182 115.934 19.4091C115.184 19 114.15 18.7955 112.832 18.7955V15.4545ZM126.809 35.2273V39.3182H122.786V35.2273H126.809Z" fill="#00C1FE"/>
<path d="M35.6456 39.7273V37L57.6001 25.8182V30.1818L40.7592 38.2955L40.8956 38.0227V38.7045L40.7592 38.4318L57.6001 46.5455V50.9091L35.6456 39.7273ZM106.35 39.7273L84.3956 50.9091V46.5455L101.237 38.4318L101.1 38.7045V38.0227L101.237 38.2955L84.3956 30.1818V25.8182L106.35 37V39.7273Z" fill="#FF7A00"/>
<path d="M78.468 15.4545L67.218 57.25H63.5362L74.7862 15.4545H78.468Z" fill="#00FF0A"/>
</svg>
